<svg id="Layer_3" enable-background="new 0 0 64 64" height="512" viewBox="0 0 64 64" width="512" xmlns="http://www.w3.org/2000/svg"><g><g fill="#78b75b"><path d="m50 19v-5h3l-5-8-5 8h3v5"/><path d="m46 45v5h-3l5 8 5-8h-3v-5"/><path d="m27 39h2c1.105 0 2-.895 2-2v-15c0-2.209-1.791-4-4-4h-12c-2.209 0-4 1.791-4 4v15c0 1.105.895 2 2 2h2"/></g><path d="m18 18v1c0 1.657 1.343 3 3 3 1.657 0 3-1.343 3-3v-1" fill="#efbe9a"/><path d="m15 39h-2c-1.105 0-2-.895-2-2v-2h4z" fill="#efbe9a"/><path d="m29 39h-2v-4h4v2c0 1.105-.895 2-2 2z" fill="#efbe9a"/><path d="m15 35h12v23h-12z" fill="#4d5d7a"/><path d="m21 58h-6c-1.105 0-2 .895-2 2v2h8z" fill="#78b75b"/><path d="m21 58h6c1.105 0 2 .895 2 2v2h-8z" fill="#78b75b"/><path d="m17 10h-3c-1.105 0-2 .895-2 2 0 1.105.895 2 2 2h3" fill="#db9b7c"/><path d="m25 10h3c1.105 0 2 .895 2 2 0 1.105-.895 2-2 2h-3" fill="#db9b7c"/><path d="m26 6v7c0 2.761-2.239 5-5 5-2.761 0-5-2.239-5-5v-7" fill="#efbe9a"/><path d="m24 6c0 2.209-3.791 4-6 4h-4v-4c0-2.209 1.791-4 4-4h6c2.209 0 4 1.791 4 4v4c-2.209 0-4-1.791-4-4z" fill="#976947"/><g><path d="m20 40h2v18h-2z" fill="#8892a0"/></g><path d="m42 3v-2h-10v2h2v58h-2v2h10v-2h-6v-2h4v-2h-4v-2h4v-2h-4v-2h4v-2h-4v-2h4v-2h-4v-2h4v-2h-4v-2h4v-2h-4v-2h4v-2h-4v-2h4v-2h-4v-2h4v-2h-4v-2h4v-2h-4v-2h4v-2h-4v-2h4v-2h-4v-2h4v-2h-4v-2h4v-2h-4v-2z" fill="#4472b2"/><g><path d="m45 21h2v2h-2z" fill="#96cc7f"/></g><g><path d="m45 25h2v2h-2z" fill="#96cc7f"/></g><g><path d="m45 29h2v2h-2z" fill="#96cc7f"/></g><g><path d="m49 21h2v2h-2z" fill="#96cc7f"/></g><g><path d="m49 25h2v2h-2z" fill="#96cc7f"/></g><g><path d="m49 29h2v2h-2z" fill="#96cc7f"/></g><g><path d="m49 41h2v2h-2z" fill="#96cc7f"/></g><g><path d="m49 37h2v2h-2z" fill="#96cc7f"/></g><g><path d="m49 33h2v2h-2z" fill="#96cc7f"/></g><g><path d="m45 41h2v2h-2z" fill="#96cc7f"/></g><g><path d="m45 37h2v2h-2z" fill="#96cc7f"/></g><g><path d="m45 33h2v2h-2z" fill="#96cc7f"/></g></g></svg>