<svg id="Capa_1" enable-background="new 0 0 512 512" height="512" viewBox="0 0 512 512" width="512" xmlns="http://www.w3.org/2000/svg"><g><g><g><path d="m464.094 504.5h-416.187c-22.316 0-40.407-18.091-40.407-40.406v-416.187c0-22.316 18.091-40.407 40.407-40.407h416.187c22.316 0 40.406 18.091 40.406 40.407v416.187c0 22.315-18.091 40.406-40.406 40.406z" fill="#ecf4ff"/></g><g><path d="m354.972 367.094c-61.76 61.76-130.32 108.22-197.545 137.406h306.667c22.316 0 40.406-18.091 40.406-40.406v-325.128c-27.514 76.774-78.365 156.965-149.528 228.128z" fill="#ddeafb"/></g><g><path d="m464.094 39.825h-70.711c-4.463 0-8.081 3.618-8.081 8.081v137.382c0 4.463-3.618 8.081-8.081 8.081h-242.441c-4.463 0-8.081-3.618-8.081-8.081v-137.381c0-4.463-3.618-8.081-8.081-8.081h-70.711c-4.463 0-8.081 3.618-8.081 8.081v416.187c0 4.463 3.618 8.081 8.081 8.081h416.187c4.463 0 8.081-3.618 8.081-8.081v-416.187c0-4.464-3.618-8.082-8.081-8.082z" fill="#bc95e2"/></g><g><path d="m464.094 39.825h-26.264c4.463 0 8.081 3.618 8.081 8.081v416.187c0 4.463-3.618 8.081-8.081 8.081h26.264c4.463 0 8.081-3.618 8.081-8.081v-416.186c0-4.464-3.618-8.082-8.081-8.082z" fill="#ac80dd"/></g><g><path d="m344.894 161.045h-177.788c-4.463 0-8.081-3.618-8.081-8.081v-105.057c0-4.463 3.618-8.081 8.081-8.081h177.789c4.463 0 8.081 3.618 8.081 8.081v105.057c0 4.463-3.619 8.081-8.082 8.081z" fill="#ffceec"/></g><g><path d="m401.463 282.264h-290.926c-8.926 0-16.163-7.236-16.163-16.163 0-8.926 7.236-16.163 16.163-16.163h290.927c8.926 0 16.163 7.236 16.163 16.163-.001 8.927-7.237 16.163-16.164 16.163z" fill="#8659b9"/></g><g><path d="m401.463 346.915h-290.926c-8.926 0-16.163-7.236-16.163-16.163 0-8.926 7.236-16.163 16.163-16.163h290.927c8.926 0 16.163 7.236 16.163 16.163-.001 8.926-7.237 16.163-16.164 16.163z" fill="#8659b9"/></g><g><path d="m401.463 411.565h-290.926c-8.926 0-16.163-7.236-16.163-16.163 0-8.926 7.236-16.163 16.163-16.163h290.927c8.926 0 16.163 7.236 16.163 16.163-.001 8.927-7.237 16.163-16.164 16.163z" fill="#8659b9"/></g></g><g><path d="m504.5 176c4.142 0 7.5-3.357 7.5-7.5v-120.59c0-26.418-21.492-47.91-47.91-47.91h-416.18c-26.418 0-47.91 21.492-47.91 47.91v416.18c0 26.418 21.492 47.91 47.91 47.91h416.18c26.418 0 47.91-21.492 47.91-47.91v-260.59c0-4.143-3.358-7.5-7.5-7.5s-7.5 3.357-7.5 7.5v260.59c0 18.146-14.763 32.91-32.91 32.91h-416.18c-18.147 0-32.91-14.764-32.91-32.91v-416.18c0-18.146 14.763-32.91 32.91-32.91h416.18c18.147 0 32.91 14.764 32.91 32.91v120.59c0 4.143 3.358 7.5 7.5 7.5z"/><path d="m39.83 367.2c-4.142 0-7.5 3.357-7.5 7.5v89.39c0 8.591 6.989 15.58 15.58 15.58h416.18c8.591 0 15.58-6.989 15.58-15.58v-416.18c0-8.591-6.989-15.58-15.58-15.58h-70.71c-8.591 0-15.58 6.989-15.58 15.58v137.38c0 .32-.26.58-.58.58h-242.44c-.319 0-.58-.26-.58-.58v-137.38c0-8.591-6.989-15.58-15.58-15.58h-70.71c-8.591 0-15.58 6.989-15.58 15.58v291.79c0 4.143 3.358 7.5 7.5 7.5s7.5-3.357 7.5-7.5v-291.79c0-.325.255-.58.58-.58h70.71c.325 0 .58.255.58.58v137.38c0 8.591 6.989 15.58 15.58 15.58h242.44c8.591 0 15.58-6.989 15.58-15.58v-137.38c0-.325.255-.58.58-.58h70.71c.325 0 .58.255.58.58v416.18c0 .325-.255.58-.58.58h-416.18c-.325 0-.58-.255-.58-.58v-89.39c0-4.142-3.358-7.5-7.5-7.5z"/><path d="m352.98 71.87c4.142 0 7.5-3.357 7.5-7.5v-16.46c0-8.591-6.994-15.58-15.59-15.58h-177.78c-8.596 0-15.59 6.989-15.59 15.58v105.05c0 8.591 6.994 15.58 15.59 15.58h177.78c8.596 0 15.59-6.989 15.59-15.58v-53.59c0-4.143-3.358-7.5-7.5-7.5s-7.5 3.357-7.5 7.5v53.59c0 .325-.259.58-.59.58h-65.836c-2.392-7.353-8.201-13.16-15.554-15.551v-28.463c0-4.143-3.358-7.5-7.5-7.5s-7.5 3.357-7.5 7.5v28.463c-7.354 2.391-13.162 8.198-15.554 15.551h-65.836c-.331 0-.59-.255-.59-.58v-105.05c0-.325.259-.58.59-.58h177.78c.331 0 .59.255.59.58v16.46c0 4.143 3.358 7.5 7.5 7.5z"/><path d="m248.5 71.141v6.061c0 4.143 3.358 7.5 7.5 7.5s7.5-3.357 7.5-7.5v-6.061c0-4.143-3.358-7.5-7.5-7.5s-7.5 3.357-7.5 7.5z"/><path d="m280.825 71.141v6.061c0 4.143 3.358 7.5 7.5 7.5s7.5-3.357 7.5-7.5v-6.061c0-4.143-3.358-7.5-7.5-7.5s-7.5 3.357-7.5 7.5z"/><path d="m313.15 71.141v6.061c0 4.143 3.358 7.5 7.5 7.5s7.5-3.357 7.5-7.5v-6.061c0-4.143-3.358-7.5-7.5-7.5s-7.5 3.357-7.5 7.5z"/><path d="m216.175 71.141v6.061c0 4.143 3.358 7.5 7.5 7.5s7.5-3.357 7.5-7.5v-6.061c0-4.143-3.358-7.5-7.5-7.5s-7.5 3.357-7.5 7.5z"/><path d="m183.85 71.141v6.061c0 4.143 3.358 7.5 7.5 7.5s7.5-3.357 7.5-7.5v-6.061c0-4.143-3.358-7.5-7.5-7.5s-7.5 3.357-7.5 7.5z"/><path d="m110.537 289.765h290.927c13.048 0 23.663-10.615 23.663-23.663 0-13.047-10.615-23.662-23.663-23.662h-290.927c-13.048 0-23.663 10.615-23.663 23.662s10.615 23.663 23.663 23.663zm0-32.326h290.927c4.776 0 8.663 3.886 8.663 8.662s-3.886 8.663-8.663 8.663h-290.927c-4.776 0-8.663-3.887-8.663-8.663s3.886-8.662 8.663-8.662z"/><path d="m110.537 354.415h290.927c13.048 0 23.663-10.615 23.663-23.663 0-13.047-10.615-23.662-23.663-23.662h-290.927c-13.048 0-23.663 10.615-23.663 23.662 0 13.048 10.615 23.663 23.663 23.663zm0-32.325h290.927c4.776 0 8.663 3.886 8.663 8.662s-3.886 8.663-8.663 8.663h-290.927c-4.776 0-8.663-3.887-8.663-8.663s3.886-8.662 8.663-8.662z"/><path d="m110.537 419.065h290.927c13.048 0 23.663-10.615 23.663-23.663 0-13.047-10.615-23.662-23.663-23.662h-290.927c-13.048 0-23.663 10.615-23.663 23.662 0 13.048 10.615 23.663 23.663 23.663zm0-32.325h290.927c4.776 0 8.663 3.886 8.663 8.662s-3.886 8.663-8.663 8.663h-290.927c-4.776 0-8.663-3.887-8.663-8.663s3.886-8.662 8.663-8.662z"/></g></g></svg>